<?xml version="1.0" standalone="no"?>
<!DOCTYPE svg PUBLIC "-//W3C//DTD SVG 20010904//EN"
 "http://www.w3.org/TR/2001/REC-SVG-20010904/DTD/svg10.dtd">
<svg version="1.0" xmlns="http://www.w3.org/2000/svg"
 width="956.000000pt" height="920.000000pt" viewBox="0 0 956.000000 920.000000"
 preserveAspectRatio="xMidYMid meet">
<metadata>
Created by potrace 1.15, written by Peter Selinger 2001-2017
</metadata>
<g transform="translate(0.000000,920.000000) scale(0.100000,-0.100000)"
fill="#000000" stroke="none">
<path d="M4565 8051 c-38 -10 -108 -34 -155 -53 -116 -48 -631 -291 -625 -296
14 -14 417 -54 592 -59 223 -6 349 4 554 42 72 14 194 34 272 45 196 28 197
28 197 51 0 25 -65 66 -238 153 -195 98 -292 128 -422 133 -80 2 -121 -1 -175
-16z"/>
<path d="M5830 7632 c0 -10 238 -225 320 -289 251 -196 837 -506 906 -479 56
22 -98 289 -260 452 -172 172 -310 225 -760 294 -223 34 -206 32 -206 22z"/>
<path d="M3400 7623 c-92 -16 -381 -78 -458 -98 -222 -59 -336 -151 -487 -396
-71 -115 -365 -652 -359 -658 4 -5 196 111 314 189 200 134 622 493 888 756
202 200 215 226 102 207z"/>
<path d="M1965 6351 c-56 -34 -333 -331 -416 -446 -53 -72 -96 -162 -114 -236
-17 -74 -20 -255 -5 -379 20 -166 93 -645 100 -653 8 -9 194 472 234 603 50
169 97 379 121 548 40 274 61 371 106 474 45 103 37 129 -26 89z"/>
<path d="M7450 6300 c0 -46 42 -290 65 -377 44 -168 144 -399 251 -580 60
-103 151 -223 168 -223 24 0 29 30 34 201 11 402 -67 576 -392 882 -99 93
-126 114 -126 97z"/>
<path d="M3580 5791 c-25 -95 -32 -309 -37 -1201 -5 -915 3 -1353 27 -1475 12
-60 41 -95 64 -76 52 44 57 148 63 1404 3 625 8 1137 12 1137 3 0 243 -237
533 -527 l528 -528 528 528 c290 290 530 527 535 527 4 0 7 -538 7 -1195 l0
-1195 -772 0 c-951 0 -1069 -8 -1076 -73 -8 -70 84 -77 1137 -84 l873 -6 -5
1229 c-7 1300 -13 1508 -52 1560 -11 16 -16 15 -56 -13 -101 -70 -328 -281
-712 -662 l-407 -405 -378 375 c-207 206 -431 424 -497 484 -140 127 -274 235
-292 235 -7 0 -17 -17 -23 -39z"/>
<path d="M1440 4173 c-27 -253 -31 -447 -11 -538 19 -88 69 -189 142 -285 63
-84 542 -567 547 -552 1 5 -25 117 -58 250 -99 400 -166 578 -320 847 -50 88
-130 238 -178 332 -48 95 -90 173 -93 173 -3 0 -16 -102 -29 -227z"/>
<path d="M7846 4258 c-101 -154 -218 -644 -233 -975 -5 -119 -4 -133 11 -139
22 -8 77 44 155 146 154 203 186 298 184 555 -1 251 -33 426 -80 433 -14 2
-27 -5 -37 -20z"/>
<path d="M7005 2497 c-136 -73 -325 -225 -561 -449 -190 -181 -369 -368 -351
-368 36 0 286 51 343 70 202 66 355 183 472 360 68 102 174 323 179 375 7 55
0 56 -82 12z"/>
<path d="M2300 2459 c0 -16 158 -308 206 -381 90 -135 208 -231 353 -287 112
-43 208 -65 481 -111 135 -22 253 -43 263 -46 9 -3 17 -1 17 4 0 15 -286 268
-374 331 -246 174 -415 264 -893 477 -29 12 -53 18 -53 13z"/>
<path d="M4900 1584 c-157 -15 -318 -41 -552 -92 -148 -31 -268 -60 -268 -63
0 -3 62 -35 138 -71 205 -99 280 -118 456 -118 223 0 394 52 671 205 167 92
173 100 90 125 -40 12 -441 22 -535 14z"/>
</g>
</svg>
