<svg xmlns="http://www.w3.org/2000/svg" xmlns:xlink="http://www.w3.org/1999/xlink" viewBox="0 0 19 19"><defs><style>.a{fill:none;}.b{clip-path:url(#a);}.c{fill:#404d67;}</style><clipPath id="a"><rect class="a" width="19" height="19"/></clipPath></defs><g transform="translate(-1761 -31)"><g class="b" transform="translate(1761 31)"><g transform="translate(-1685 -23)"><rect class="c" width="5" height="5" rx="1" transform="translate(1685 23)"/></g><g transform="translate(-1678 -23)"><rect class="c" width="5" height="5" rx="1" transform="translate(1685 23)"/></g><g transform="translate(-1671 -23)"><rect class="c" width="5" height="5" rx="1" transform="translate(1685 23)"/></g><g transform="translate(-1685 -16)"><rect class="c" width="5" height="5" rx="1" transform="translate(1685 23)"/></g><g transform="translate(-1678 -16)"><rect class="c" width="5" height="5" rx="1" transform="translate(1685 23)"/></g><g transform="translate(-1671 -16)"><rect class="c" width="5" height="5" rx="1" transform="translate(1685 23)"/></g><g transform="translate(-1685 -9)"><rect class="c" width="5" height="5" rx="1" transform="translate(1685 23)"/></g><g transform="translate(-1678 -9)"><rect class="c" width="5" height="5" rx="1" transform="translate(1685 23)"/></g><g transform="translate(-1671 -9)"><rect class="c" width="5" height="5" rx="1" transform="translate(1685 23)"/></g></g></g></svg>