<?xml version="1.0" encoding="UTF-8" standalone="no"?>
<svg
   xmlns:dc="http://purl.org/dc/elements/1.1/"
   xmlns:cc="http://creativecommons.org/ns#"
   xmlns:rdf="http://www.w3.org/1999/02/22-rdf-syntax-ns#"
   xmlns:svg="http://www.w3.org/2000/svg"
   xmlns="http://www.w3.org/2000/svg"
   xmlns:sodipodi="http://sodipodi.sourceforge.net/DTD/sodipodi-0.dtd"
   xmlns:inkscape="http://www.inkscape.org/namespaces/inkscape"
   version="1.0"
   width="170.000000pt"
   height="164.000000pt"
   viewBox="0 0 170.000000 164.000000"
   preserveAspectRatio="xMidYMid meet"
   id="svg2"
   inkscape:version="0.91 r13725"
   sodipodi:docname="simple.svg">
  <defs
     id="defs34" />
  <sodipodi:namedview
     pagecolor="#ffffff"
     bordercolor="#666666"
     borderopacity="1"
     objecttolerance="10"
     gridtolerance="10"
     guidetolerance="10"
     inkscape:pageopacity="0"
     inkscape:pageshadow="2"
     inkscape:window-width="1920"
     inkscape:window-height="1027"
     id="namedview32"
     showgrid="false"
     inkscape:zoom="1.1512195"
     inkscape:cx="107.98729"
     inkscape:cy="102.5"
     inkscape:window-x="0"
     inkscape:window-y="0"
     inkscape:window-maximized="1"
     inkscape:current-layer="g6" />
  <metadata
     id="metadata4">
Created by potrace 1.13, written by Peter Selinger 2001-2015
<rdf:RDF>
  <cc:Work
     rdf:about="">
    <dc:format>image/svg+xml</dc:format>
    <dc:type
       rdf:resource="http://purl.org/dc/dcmitype/StillImage" />
  </cc:Work>
</rdf:RDF>
</metadata>
  <g
     transform="translate(0.000000,164.000000) scale(0.100000,-0.100000)"
     fill="#000000"
     stroke="none"
     id="g6">
    <path
       d="M0 820 l0 -820 850 0 850 0 0 820 0 820 -850 0 -850 0 0 -820z m952 610 c36 -18 93 -37 139 -45 123 -22 146 -39 203 -153 15 -30 54 -83 87 -118 32 -35 60 -67 60 -71 1 -5 3 -100 4 -213 3 -232 4 -229 -80 -310 -26 -25 -62 -74 -80 -110 -51 -101 -79 -121 -202 -140 -39 -7 -92 -25 -131 -45 -88 -47 -138 -47 -231 0 -40 20 -98 39 -137 45 -118 19 -143 38 -199 149 -14 29 -55 84 -90 121 -74 79 -83 106 -65 209 9 55 9 90 -1 159 -15 110 -8 132 72 217 31 33 71 88 89 123 48 92 83 118 174 133 47 7 108 27 158 51 100 47 138 47 230 -2z"
       id="path8"
       style="fill:#a60041;fill-opacity:1" />
    <path
       d="M745 1406 l-70 -33 68 -8 c42 -5 90 -3 125 4 31 6 68 12 82 13 21 3 17 7 -29 31 -71 35 -92 34 -176 -7z"
       id="path10"
       style="fill:#a60041;fill-opacity:1" />
    <path
       d="M547 1346 c-69 -15 -84 -28 -135 -122 l-38 -70 49 30 c55 35 212 176 194 175 -7 0 -38 -6 -70 -13z"
       id="path12"
       style="fill:#a60041;fill-opacity:1" />
    <path
       d="M875 1345 c-37 -9 -87 -12 -132 -8 -90 7 -119 -4 -173 -68 -23 -28 -65 -63 -93 -80 -96 -54 -103 -66 -117 -171 -5 -40 -21 -100 -35 -133 -33 -74 -30 -120 13 -191 17 -27 39 -81 47 -120 9 -38 23 -80 32 -92 8 -13 47 -39 86 -57 40 -18 96 -54 125 -79 62 -54 86 -62 150 -50 26 5 97 9 157 9 123 0 129 2 195 78 22 25 64 59 93 76 84 48 96 66 111 167 8 49 26 114 40 144 14 30 26 65 26 77 0 12 -18 55 -40 96 -21 41 -45 102 -53 135 -20 85 -35 103 -119 144 -40 19 -94 54 -119 77 -73 64 -92 68 -194 46z m-123 -402 l98 -98 98 98 c53 53 103 97 110 97 9 0 12 -59 12 -250 l0 -250 -180 0 c-153 0 -180 2 -180 15 0 13 25 15 165 15 l165 0 0 212 0 213 -95 -95 -95 -95 -95 95 -95 95 0 -228 c0 -195 -2 -227 -15 -227 -13 0 -15 34 -15 250 0 191 3 250 12 250 7 0 57 -44 110 -97z"
       id="path14"
       style="fill:#a60041;fill-opacity:1" />
    <path
       d="M1083 1321 c38 -35 166 -105 175 -96 7 6 -26 60 -50 82 -28 26 -58 38 -121 47 l-48 7 44 -40z"
       id="path16"
       style="fill:#a60041;fill-opacity:1" />
    <path
       d="M311 1092 c-61 -66 -65 -82 -51 -181 l13 -85 27 70 c15 38 31 98 35 134 4 36 12 73 17 83 18 35 2 27 -41 -21z"
       id="path18"
       style="fill:#a60041;fill-opacity:1" />
    <path
       d="M1335 1080 c7 -45 39 -117 69 -155 14 -19 15 -17 16 33 0 61 -15 94 -60 137 l-32 30 7 -45z"
       id="path20"
       style="fill:#a60041;fill-opacity:1" />
    <path
       d="M255 719 c-8 -79 1 -102 73 -172 l49 -48 -17 70 c-10 39 -28 86 -40 106 -12 20 -30 52 -40 73 l-18 36 -7 -65z"
       id="path22"
       style="fill:#a60041;fill-opacity:1" />
    <path
       d="M1386 730 c-18 -46 -37 -170 -26 -170 4 0 19 17 34 38 20 29 26 50 25 88 0 27 -4 58 -8 68 -6 16 -10 12 -25 -24z"
       id="path24"
       style="fill:#a60041;fill-opacity:1" />
    <path
       d="M1214 421 c-21 -16 -59 -50 -84 -75 l-45 -46 35 6 c58 11 94 37 123 92 16 29 24 52 19 52 -5 0 -27 -13 -48 -29z"
       id="path26"
       style="fill:#a60041;fill-opacity:1" />
    <path
       d="M436 390 c31 -56 62 -75 150 -88 l59 -10 -46 42 c-26 22 -79 55 -118 73 l-71 32 26 -49z"
       id="path28"
       style="fill:#a60041;fill-opacity:1" />
    <path
       d="M802 271 l-74 -16 36 -18 c51 -24 104 -21 165 9 28 15 51 27 49 29 -15 12 -116 10 -176 -4z"
       id="path30"
       style="fill:#a60041;fill-opacity:1" />
  </g>
</svg>
